<?xml version="1.0" encoding="iso-8859-1"?>
<!-- Generator: Adobe Illustrator 10.0, SVG Export Plug-In . SVG Version: 3.0.0 Build 43)  -->
<!DOCTYPE svg PUBLIC "-//W3C//DTD SVG 1.0//EN"    "http://www.w3.org/TR/2001/PR-SVG-20010719/DTD/svg10.dtd" [
	<!ENTITY ns_flows "http://ns.adobe.com/Flows/1.0/">
	<!ENTITY ns_svg "http://www.w3.org/2000/svg">
	<!ENTITY ns_xlink "http://www.w3.org/1999/xlink">
]>
<svg  xmlns:xlink="&ns_xlink;" xmlns="http://www.w3.org/2000/svg" xmlns:a="http://ns.adobe.com/AdobeSVGViewerExtensions/3.0/"
	 width="1310.949" height="1615.5" viewBox="0 0 1310.949 1615.5"
	 style="overflow:visible;enable-background:new 0 0 1310.949 1615.5" xml:space="preserve">
	<g id="Layer_1" class="st0">
		<path class="st3" d="M668.939,572.576c0.616-6.468,1.939-12.97,2.356-19.438c0.261-4.032,0.527-8.015,0.437-12.056
			c-0.056-2.316-0.104-2.53,1.433-4.244c1.205-1.342,1.922-2.463,2.775-4.062c2.034-3.812,2.59-6.872,2.79-11.139
			c0.18-3.819-0.709-7.422-1.18-11.211c-0.205-1.652-1.641-2.731,0.211-3.419c0.779-0.29,4.067-1.688,4.54-1.04
			c1.988,2.721,5.708,3.313,8.871,4.146c-2.434-3.496,1.914-3.205,2.704-5.968c0.33-1.156-0.042-2.639-1.329-3.278
			c-2.168-1.08-3.937,0.985-4.674,2.696c-1.086,2.515-1.687,0.971-1.664-0.809c0.026-2.143,0.726-2.826,2.044-4.396
			c0.945-1.126,2.049-1.578,3.359-2.265c0.543-0.285,0.56-1.165,1.012-1.543c0.468-0.391,1.34-0.576,1.904-0.816
			c-0.536-0.993-1.263-1.569-0.603-2.534c0.597-0.869,0.441-1.68,0.454-2.731c-2.388,0.098-3.984,0.155-6.156,1.109
			c-0.562,0.248-0.645,2.499-0.755,3.07c-0.293,1.506-0.479,1.787-1.594,2.875c0.022-1.928,1.001-7.753,0.048-9.369
			c-0.878-1.494-2.449-3.375-2.054-5.179c0.441-2.022,0.744-3.512,2.035-5.085c2.522-3.075,5.13-3.251,8.943-3.202
			c1.938,0.021,2.548-0.01,3.652-1.5c1.003-1.354,1.968-2.689,2.877-4.105c-1.246,0.575-2.813,1.021-3.928,1.813
			c-1.557,1.104-1.255,1.722-3.345,1.591c-2.435-0.151-2.508-0.121-3.776-2.241c-0.931-1.553-1.209-3.187-1.743-4.903
			c-0.968-3.11-1.768-6.221-2.544-9.39c-0.65-2.658-0.305-5.534-0.845-8.215c-0.707-3.505-1.146-5.772-3.066-8.729
			c-0.728-1.121-2.343-2.771-2.648-4.083c-0.146-0.628,0.139-3.498,0.606-3.907c1.164-1.008,2.324-2.02,3.48-3.033
			c0.733-0.646,2.232,0.904,3.363,1.062c1.347,0.187,2.002,0.691,2.82-0.346c0.734-0.935,2.62-3.902,3.316-3.502
			c-0.479-0.799-1.095-2.701-2.07-2.798c-1.473-0.146-2.943-0.292-4.414-0.438c0.502-0.976,1.006-1.953,1.508-2.929
			c-1.33,1.103-2.727,2.731-4.253,3.527c-0.866,0.452-2.039,0.617-2.974,0.9c-1.337,0.404-1.146,0.128-1.838-1.103
			c-1.79-3.181-3.733-6.282-5.39-9.536c-3.84-7.554-7.321-15.349-9.393-23.55c2.03,0.159,4.38,3.354,5.818,4.952
			c1.067,1.188,1.753,2.676,2.886,3.769c0.909,0.877,2.188,1.553,2.815,2.656c0.645,1.135,1.154,2.033,1.474,3.286
			c0.528,2.085,1.208,2.658,2.772,4.265c0.993,1.018-0.419-5.476-0.668-6.178c-0.836-2.358,1.756-3.797,3.353-5.508
			c1.709-1.834,2.794-3.083,5.288-3.163c1.556-0.049,2.155,0.026,3.073-1.167c1.201-1.563,1.252-1.517,3.242-1.492
			c1.23,0.015,2.479,0.244,3.702,0.375c1.368,0.147,2.116-0.618,3.286-1.342c-1.401-0.088-2.805-0.175-4.206-0.263
			c0.009,0.019,0.168,0.023,0.188,0.01c-0.989,0.642-9.649-2.729-5.197-3.439c-1.428-2.346-0.958-0.854-3.101-0.881
			c-2.001-0.024-3.354-0.175-4.229-2.367c-0.675-1.688,0.418-2.905,1.231-4.265c0.484-0.809,4.011-0.146,4.716-0.083
			c-0.451-2.927-0.539-2.541-3.508-2.725c-1.938-0.121-3.879-0.102-5.816-0.126c-3.588-0.044-6.465,2.661-8.876,5.015
			c-1.875,1.829-7.209,5.407-9.941,3.722c-2.337-1.441-2.616-1.505-3.192-4.123c-0.412-1.871-0.809-3.71-1.371-5.539
			c-2.38-7.694-4.72-14.924-8.716-21.939c-3.555-6.233-6.735-13.115-11.104-18.816c-1.397-1.824-5.803-5.995-6.048-8.318
			c-0.324-3.072-1.098-7.198,2.28-8.886c-0.03,2.431,0.108,4.789,1.388,6.964c0.298-1.674,1.251-7.896,3.849-4.899
			c1.512,1.742,1.742,4.219,2.87,6.245c0.544,0.975,1.454,1.631,1.44,2.778c-0.03,2.494-0.081,1.156,1.661,1.892
			c3.069,1.296,3.537,3.396,3.501,6.358c0.438-0.189,1.022-0.039,1.476-0.193c-0.006,0.509-0.309,2.467,0.188,2.573
			c1.171,0.249,1.816,0.351,2.737,1.076c1.645,1.297,3.311,2.558,4.981,3.816c-0.582-1.323-2.242-2.977-2.339-4.212
			c-0.161-2.048-2.683-2.796,0.92-2.752c0.604,0.007,0.638-1.214-0.091-1.396c-0.513-0.127-3.057-0.464-2.977-0.977
			c0.332-2.137,2.87-1.452,4.829-1.605c-0.686-0.321-1.952-0.618-2.41-1.222c-0.413-0.543-0.823-1.086-1.233-1.629
			c-0.31-0.406,0.713-0.78,0.747-1.184c0.195-2.429-1.418-4.535-1.392-6.773c0.029-2.372,1.808-3.698,1.396-6.373
			c-0.114-0.742,0.798-2.437,0.994-3.274c0.209-0.891-1.64-0.607-0.35-2.307c-1.846-0.817-3.104-1.453-4.598-2.792
			c0.678,1.116,0.876,2.364,1.172,3.616c0.383,1.615-1.582,1.22-2.494,1.209c0.296,1.075,0.095,2.076-0.039,3.157
			c-2.803-0.63-4.584-2.879-6.042-5.126c-0.012,0.955,0.189,3.115-1.097,3.565c-1.729,0.605-2.342-1.513-2.642-2.549
			c-0.324-1.14,0.05-2.391,0.388-3.474c0.426-1.357,0.136-2.462,0.689-3.89c2.237,1.463,3.556,3.202,6.245,3.234
			c0.594,0.007,0.618-0.847,1.095-1.039c0.445-0.179,0.997-0.106,1.465-0.242c1.09-0.318,0.638-1.22,1.316-1.741
			c0.521-0.398,1.037,0.129,1.465-0.289c0.979-0.955,2.571-0.082,3.37-0.793c1.069-0.951-0.006-1.86,1.613-2.717
			c0.884-0.469,3.524-1.113,3.49-2.237c-0.052-1.554-1.606-2.237-2.69-3.016c-0.179,0.842-0.357,1.684-0.537,2.525
			c-0.223,1.05-1.02,0.838-1.828,1.446c-1.813,1.364-1.413,2.088-3.813,2.059c0.159-1.612,0.318-3.224,0.479-4.835
			c-0.605,1.635-1.225,3.231-1.952,4.817c-0.271-0.705-0.545-1.41-0.815-2.115c0.085,0.509,0.662,2.175,0.193,2.427
			c-0.975,0.526-1.609,0.684-2.029,1.698c-0.308,0.737-1.611,1.2-2.272,1.61c-0.448,0.278-1.296-1.397-1.766-1.678
			c-0.471-0.283-2.173-0.935-2.368-1.421c-0.103-0.256,0.651-2.769,0.878-2.936c1.803-1.34,2.599,2.097,4.623,0.688
			c-1.006-1.924-1.557-2.417-0.854-4.444c-0.19,0.547,3.487-0.714,3.865-0.992c1.732-1.269,1.501-2.234,1.525-4.239
			c0.029-2.361,1.883-1.654,3.385-1.384c-0.704-1.9-0.396-2.973-2.445-2.233c0.139-0.051-2.433-2.899-2.958-3.306
			c0.142,3.507,0.126,6.646-0.545,10.098c-1.063-0.394-2.362-1.256-3.479-0.928c-2.224,0.654-2.138,0.723-3.654-1.053
			c0.771,0.01,1.543,0.019,2.315,0.029c-0.233-2.663-0.553-2.096-3.188-2.008c-1.923,0.063-3.521-0.23-3.497-2.385
			c0.016-1.134,3.3-2.631,2.361-3.66c-0.27-0.295-2.341-0.029-2.784-0.034c-0.434-0.005-0.858,1.682-1.028,2.093
			c-0.273-0.469-0.767-0.808-1.038-1.275c-1.539,2.142-2.329,4.803-0.557,7.23c1.289,1.763,1.621,2.084,3.683,2.745
			c1.234,0.397,2.458,0.839,3.684,1.265c-0.89,0.992-2.895,3.625-4.354,3.15c-2.624-0.856-3.318-1.613-5.325-3.479
			c-1.679-1.563-3.192-2.548-4.404-4.506c-0.35-0.564-1.243-2.171-1.827-2.306c-0.771-0.179-2.632,0.982-3.46,1.166
			c-0.583,0.13-4.007-3.466-4.689-4.026c-1.69-1.386-2.132-3.3-3.226-5.173c-2.156-3.697-3.925-7.612-6.069-11.337
			c-2.725,0.827-1.281,5.551-0.513,7.362c1.306,3.066,3.317,5.017,5.698,7.214c1.939,1.789,3.445,4.099,5.19,6.086
			c1.58,1.799,5.466,4.88,3.386,7.293c2.857,0.035,3.65,0.893,5.493,3.049c1.642,1.923,2.354,2.502,0.1,4.387
			c1.513,0.78,3.452,1.35,3.96,3.206c0.125,0.454,0.188,4.913-0.188,5.122c-3.817,2.121-6.515,1.953-10.766,1.901
			c-2.939-0.036-2.965-7.704-3.306-9.821c-0.568-3.521-3.105-7.271-4.781-10.401c-3.624-6.762-8.382-12.857-12.874-19.042
			c-4.537-6.247-8.698-12.755-13.259-18.995c-4.08-5.579-8.407-10.969-12.553-16.497c-2.485-3.313-5.188-6.546-7.486-9.992
			c-2.048-3.075-3.863-6.411-6.35-9.142c-0.401-0.439-1.459-1.205-1.451-1.838c0.012-1.007,1.711-4.427,0.957-5.115
			c-1.563-1.422,8.047-0.403,6.813-2.127c-0.106-0.15-0.492-4.936-2.778-5.086c-1.745-0.116,1.179-1.47-0.454-1.585
			c-0.561-0.039-4.271,1.109-5.548,1.827c-1.249,0.702-2.256-1.947-3.461-1.147c-0.403,0.267,0.343,2.529,0.276,3.161
			c-0.073,0.715-0.922-0.169-0.779,0.618c0.234,1.296,1.061,3.83,1.042,3.807c-0.521-0.714-3.203-3.761-3.732-4.467
			c-0.552-0.734,0.586-1.481,0.025-2.21c-0.694-0.906-4.117-5.155-4.819-6.058c-0.378-0.488,1.841-2.969,1.463-3.457
			c-0.651-0.838-1.317-0.057-1.882-0.97c-0.379-0.608-2.315,1.051-2.69,0.441c-0.462-0.751-0.262-1.195-0.767-1.904
			c-0.395-0.552,1.902-2.323,1.456-2.824c-0.387-0.43-1-0.665-0.934-1.275c0.114-1.009-2.553-0.431-3.267-1.163
			c-1.277-1.309-2.225-3.411-3.594-4.503c-1.416-1.129-2.107-2.557-3.395-3.722c-0.645-0.585-4.463-1.833-2.563-3.516
			c0.456-0.406,1.626-1.896,2.209-1.961c0.638-0.07,1.351,1.068,2.046,1.077c2.086,0.026,4.04,0.038,5.334-2.04
			c0.775-1.248,0.925-3.478,1.429-4.931c0.772-2.227,0.707-3.78,0.624-6.163c-0.134-3.763-2.64-7.477-4.519-10.567
			c-3.89-6.394-7.766-12.584-12.151-18.662c-2.271-3.147-4.393-6.326-6.796-9.376c-0.463-0.588-1.217-1.262-1.534-1.946
			c-0.254-0.551-0.05-1.544-0.479-1.984c-1.453-1.488-2.957-2.927-4.271-4.542c-2.754-3.387-5.551-7.038-9.161-9.433
			c-1.216-0.808-0.867-1.067-2.521-1.272c-0.642-0.079-1.395-1.712-1.762-2.231c-0.482-0.682-0.529-1.888-1.114-2.457
			c-0.604-0.587-2.332-0.809-3.146-1.09c2.271-1.475,2.285-2.6,3.011-5.227c2.859,0.949,5.794,2.08,8.813,2.422
			c2.044,0.233,3.726-0.292,5.614-0.996c0.988-0.369,1.281-3.366,1.95-3.324c3.445,0.215,6.848,0.565,10.276,0.952
			c0.525,0.059,2.21-2.691,3.077-3.111c1.485-0.719,2.875,0.892,4.189,1.735c-3.444,0.646-3.813,2.237-4.06,5.49
			c-0.094,1.256-0.579,2.565-0.868,3.792c-0.292,1.242,0.717,2.291-0.486,3.071c-0.993,0.645,0.636,5.827,0.718,7.482
			c0.13,2.601,0.826,5.055,2.14,7.259c1.675,2.81,2.99,4.878,5.347,7.118c1.844,1.755,3.774,2.952,5.255,5.146
			c0.786,1.165,1.528,2.346,2.269,3.54c0.596,0.962-1.798,1.844-2.375,1.252c-1.075-1.103-1.215-2.389-2.121-3.451
			c-0.813-0.957-2.394-1.602-3.337-2.567c0.829,1.833,1.692,3.545,2.673,5.295c1.138,2.03,2.236,2.132,4.604,2.161
			c-0.427,2.007-0.335,2.892,1.743,3.831c1.741,0.788,3.53,1.729,5.393,2.217c1.905,0.501,3.742,1.063,2.644,3.335
			c-0.268,0.556-1.01,1.497-1.496,1.876c-1.25,0.975-1.534-0.242-1.357,1.769c0.181,2.073,0.298,3.902,2.579,3.929
			c0.917,0.012,1.326-0.267,2.088-0.816c0.339-0.245,0.305-1.012,0.646-1.255c0.361-0.258,1.396,0.128,1.688-0.189
			c1.479-1.607-0.092-4.456-0.749-6.009c-0.778-1.842-1.456-2.949-1.432-4.964c2.106,0.487,5.29-0.292,6.966-1.599
			c1.706-1.331,1.622-4.959,2.191-7.13c1.772,0.409,1.327,5.121,2.231,5.133c1.651,0.02,2.139-0.226,3.143,1.061
			c0.656,0.84,1.258,1.672,0.65,2.617c-0.685,1.067-1.764,0.332-2.777,1.07c-1.007,0.738-2.199,0.521-3.436,0.565
			c-2.501,0.088-1.678,3.742-1.405,5.2c1.031,5.501,5.293,6.935,10.298,7.223c2.82,0.163,3.836-0.734,4.045-3.381
			c0.18-2.254,1.712-3.401,2.292-5.673c1.733,1.396,2.31,1.342,1.694,3.494c1.305,0.125,2.297,0.119,3.593-0.082
			c0.394-0.06,2.601,2.311,3.233,2.701c1.03,0.636,1.788-1.769,3.097-0.762c1.237,0.951,1.905,2.547,2.719,3.862
			c0.333,0.537,2.59,0.217,3.363,0.652c1.323,0.742,2.385,0.663,3.882,0.582c1.143-0.062,2.8-0.363,3.868-0.032
			c1.562,0.485,2.041,1.604,3.771,1.625c1.038,0.013,3.145,0.005,3.938,0.68c1.089,0.923,1.069,3.002,1.054,4.252
			c-0.039,3.187,1.685,5.363,4.5,6.34c2.652,0.919,5.275-0.564,7.882,0.214c1.438,0.43,5.321,3.675,5.475,5.212
			c-0.882,0.238-1.749,0.321-2.653,0.386c-1.16,0.083-1.428,1.433-1.959,2.399c-1.714-0.618-0.43-1.598-1.204-2.535
			c-0.483-0.588-0.971-1.177-1.457-1.766c-0.391-0.473-0.508,0.663-0.909,0.113c-1.771-2.422-3.827-0.876-4.92,1.242
			c2.313-1.408,5.168,1.905,5.798,3.702c-2.869-0.737-4.533-0.183-6.497,1.973c1.408-0.543,6.313-1.653,7.354,0.084
			c1.341,2.24,3.303,4.272,0.622,6.013c1.396,0.806,2.583,1.519,3.769,2.599c0.604,0.55,0.017,3.413-0.063,4.235
			c0.907,0.063,1.938,0.286,2.84,0.193c1.003-0.104,1.833-0.9,2.697-1.073c2.293-0.46,3.763,0.022,5.35,1.487
			c1.167-1.829-2.848-3.825-4.374-3.843c-1.135-0.014-2.271-0.028-3.404-0.042c-1.665-0.021-1.4-0.317-1.779-1.917
			c1.389,0.365,3.17,0.486,1.155-0.809c-0.71-0.456-1.324-2.936-1.731-3.777c1.527,0.26,3.004,2.148,4.539,2.828
			c1.921,0.851,2.883,1.041,4.893,0.603c-0.635-0.941-2.151-2.263-0.594-3.165c0.727-0.419,3.272,0.325,4.1,0.524
			c-1.43-3.25,1.093-3.166,3.829-3.268c-0.041-0.641-0.229-1.422-0.135-2.054c0.267-0.05,0.529-0.099,0.793-0.148
			c0.072-0.435-0.081-1.03-0.114-1.467c-0.018-0.201,3.198-0.624,3.78-1.33c0.202,0.582,0.405,1.163,0.609,1.744
			c-2.08,0.492-2.923,0.421-3.315,2.604c-0.3,1.673-1.202,2.953,0.551,4.151c-2.712,0.295-1.638,2.616-0.816,4.305
			c1.263,2.605,2.554,3.736,5.284,4.75c-1.155,2.174-3.586,0.702-5.366-0.066c0.617,1.209,1.113,2.543,2.025,3.557
			c1.421,1.577,1.227,2.323,1.981,4.228c0.728,1.828,2.163,2.484,3.435,3.813c0.852,0.893,2.57,0.231,3.628-0.254
			c0.575,2.645,2.171,4.4,3.073,6.827c0.946,2.54-0.604,4.349,0.97,6.859c0.539,0.862,1.478,0.749,2.476,0.761
			c1.475,0.018,1.902,0.771,2.438,2.24c0.86,2.38,0.566,5.112,0.538,7.585c-3.589-1.348-3.03,2.514-3.063,4.976
			c-0.011,0.893,1.292,2.345,1.539,3.399c0.437,1.885-0.73,2.045-2.251,3.157c0.521-0.188,4.856-1.161,4.843-0.007
			c-0.019,1.575-0.039,3.149-0.059,4.724c-0.041,3.438,1.496,5.185,3.483,7.804c-1.975,1.442-2.896,1.161-5.355,0.994
			c-0.521-0.035-0.405-2.147-0.731-2.542c-0.481-0.59-2.015-0.961-2.719-1.296c-0.025,2.079-0.172,2.76-1.237,4.536
			c-0.712,1.184-1.648,2.544-1.893,3.903c-0.692,3.862-0.225,6.356,1.729,9.771c1.271,2.219,2.569,6.377,5.601,6.733
			c2.607,0.307,3.262-0.06,4.401,2.292c0.732,1.513,0.876,3.254,1.575,4.77c2.951,6.366,6.979,12.233,12.509,16.643
			c1.405,1.122,2.777,1.31,4.542,1.748c2.293,0.57,0.191,2.771-0.431,3.68c-0.688,1.005-2.801,0.57-3.652,1.639
			c-1.555,1.949-0.43,2.366,0.961,4.362c-0.059-0.983-0.115-1.966-0.175-2.949c1.068-0.162,1.329,0.654,1.916,1.426
			c0.648,0.855,1.719,1.188,2.663,1.676c1.521,0.782,3.635,0.41,4.835,1.644c-1.581,0.572-2.943,1.227-4.625,1.207
			c-1.765-0.021-3.132,0.695-4.823,0.795c-1.869,0.11-3.667-0.169-3.235,2.475c0.334,2.049,2.133,2.261,3.756,2.783
			c-0.963,2.473-2.214,4.686-3.663,6.901c-0.212-1.747-0.817-10.073-4.106-8.47c0.479,2.414,0.552,5.087,1.23,7.424
			c0.271,0.933,1.438,3.223,1.092,4.143c-0.629,1.665-0.813,2.692-0.835,4.473c-0.018,1.41-0.024,2.522,0.361,3.871
			c0.398,1.39,2.233,1.913,3.442,2.613c0.127,0.073,2.609-1.496,3.084-1.687c1.465-0.589,2.856-0.703,4.433-0.894
			c-0.422,1.118-0.479,2.154-1.614,2.592c-1.195,0.461-2.708,0.131-3.739,0.632c-1.447,0.701-1.872,1.309-2.817,2.625
			c-0.246,0.342-0.981,0.083-1.165,0.352c-0.312,0.452-0.182,1.751-0.239,2.313c0.703-0.062,1.404-0.123,2.106-0.185
			c0.222,2.808,0.235,5.8,0.938,8.541c0.376,1.472,0.533,3.391,1.216,4.748c0.711,1.415,2.243,2.732,3.253,3.96
			c1.193,1.455-1.251,2.629,1.271,2.997c0.589,0.086,4.438,0.361,4.436,0.497c-0.018,1.325,0.303,3.192-1.626,2.573
			c-1.632-0.523-3.247-0.961-4.914-1.367c0.25,0.783,0.5,1.566,0.751,2.348c0.295,0.924,2.286,0.848,2.93,1.506
			c1.615,1.656,1.17,3.469,0.838,5.464c1.169-0.141,3.218,0.244,3.098-1.124c-0.145-1.649-0.69-1.823-1.995-2.862
			c2.225-1.547,2.44-3.717,3.022-6.278c1.083,1.358,1.618,2.088,3.122,2.801c1.925,0.91,1.612,3.402,0.155,4.606
			c2.144-0.059,1.732,0.968,1.859,2.76c0.361-0.908,0.726-1.815,1.087-2.724c0.484,0.498,0.97,0.994,1.453,1.492
			c0.733-1.882,0.396-2.687-0.104-4.668c-0.526-2.074,3.681-1.229,4.265-1.111c1.188,0.241,2.337,0.576,3.484,0.963
			c0.459,0.156,0.035,1.696-0.011,2.143c-0.06,0.568,0.573,0.921,0.604,1.475c0.053,0.994,0.106,1.99,0.161,2.985
			c1.065-0.128,2.321-0.088,3.336-0.442c2.024-0.709,1.992-0.972,3.266,0.769c0.643,0.876,2.548-1.26,3.095-1.26
			c0.706-0.001,2.917,1.283,3.426,1.804c1.334,1.369,4.38,3.542,4.862,5.449c0.686,2.699,0.981,5.454,1.734,8.131
			c0.456,1.628,0.427,2.065-0.03,3.704c-0.431,1.54-0.073,2.621,0.24,4.209c0.486,2.459,0.494,5.167,2.236,7.168
			c1.1,1.264,4.496,3.162,6.225,2.777c1.368-0.304,2.846-0.434,4.063-1.138c2.047-1.186,2.887-1.135,4.846,0.23
			c0.666-1.395,1.028-2.516,2.253-3.446c1.411-1.07,1.993-0.104,3.466,0.779c-0.918-1.615-1.122-3.252-1.919-4.777
			c-0.556-1.065-2.881-4.065-2.791-5.128c0.348-4.147,0.629-7.314-0.416-11.392c-0.502-1.96-0.776-3.783-1.896-5.462
			c-1.166-1.75-2.339-3.494-3.522-5.232c-1.028-1.507-2.288-3.219-2.266-5.113c0.021-1.579-0.015-1.363,1.536-1.409
			c1.179-0.035,2.356-0.069,3.535-0.104c-1.143-0.456-2.991-0.658-3.133-2.145c1.122,0.154,2.242,0.309,3.363,0.463
			c-0.615-0.317-5.149-2.589-2.416-2.556c2.217,0.027,3.178-0.723,5.01-1.913c0.929-0.602,0.072-3.991-1.013-4.354
			c-1.513-0.507-1.761,1.215-2.107,2.213c-0.372,1.077-1.314,1.119-2.357,1.521c0.495-1.885,0.907-3.43,2.412-4.714
			c1.947-1.662-0.648-2.401-1.927-3.546c-1.43-1.283-0.654-3.578-0.274-5.131c0.12-0.499,1.234-1.537,1.191-1.673
			c-0.324-1.011-0.646-2.022-0.972-3.034c2.224-0.132,2.941,0.443,2.97-1.872c-0.004,0.322-2.922-1.164-3.269-1.696
			c-1.856-2.861-5.411-3.099-7.586-5.79c-1.152-1.425-1.434-3.471-1.41-5.274c0.027-2.3-0.063-3.117,2.361-3.767
			c1.896-0.507,2.836-0.309,4.323,0.911c1.688,1.385,1.703,2.059,2.141,4.221c0.133-0.508,0.476-0.969,0.648-1.466
			c1.083,1.269,1.584,1.754,3.129,2.354c-0.325-2.136,0.604-1.677,2.358-1.656c0.292,0.004,1.931,2.454,2.572,2.874
			c1.609,1.053,0.938,1.686,0.521,3.527c-0.311,1.357-0.303,2.172-0.922,3.52c1.355,0.563,4.932,0.66,5.284,2.147
			c0.298,1.259,0.793,2.021,0.021,3.075c-0.812,1.106-0.045,1.842,0.488,3.059c-0.913,0.129-1.826,0.258-2.741,0.388
			c0.769,2.204,1.364,0.771,2.931,1.509c0.525,0.249,2.288,2.188,2.281,2.756c-0.021,1.744-1.128,7.652,2.353,5.721
			c1.48-0.823,1.998-1.62,2.771-3.115c0.492-0.958,2.523-0.875,3.655-1.184c1.422-0.388,2.844-0.782,4.262-1.189
			c1.619-0.464,1.883-1.555,3.17-0.237c0.597,0.612,2.291,1.81,2.494,2.557c0.526,1.933-1.229,1.101-2.298,1.765
			c-1.36,0.844-2.563,1.494-4.058,2.069c-0.931,0.359-0.495,2.717-1.103,3.442c-0.917,1.096-2.416,0.843-3.372,2.239
			c-0.697,1.021-0.032,3.095-0.702,3.816c-1.405,1.521-2.019-0.743-1.711,2.19c0.222,2.093,0.693,2.121,2.486,3.292
			c-0.188-2.898-0.457-5.206,1.354-7.562c1.18,1.137,2.358,2.274,3.537,3.411c0.014-1.122,0.026-2.244,0.041-3.367
			c1.438,0.223,2.625,0.131,3.642,1.175c0.638,0.651,1.272,1.305,1.91,1.957c0.343,0.352-0.567,1.512-0.563,1.981
			c0.018,1.113,1.271,2.708,1.71,3.764c0.671,1.623,1.354,3.159,2.188,4.704c-1.252,0.124-1.911-0.248-1.871,1.072
			c0.035,1.071-0.34,3.245,0.254,4.158c0.892,1.373,1.179,1.491,0.716,2.99c-0.452,1.461-0.906,2.923-1.356,4.384
			c0.896-1.02,2.742-4.342,4.233-2.053c0.827,1.269,0.145,5.533,0.125,7.036c-0.048,3.97-0.098,7.94-0.146,11.909
			c-1.647-1.267-2.416-2.479-3.526-4.253c0.173,3.169,0.482,5.195,3.032,7.337c1.305,1.096,0.448,1.411,0.631,3.023
			c0.131,1.175,0.764,2.467,1.112,3.593c0.761,2.455,1.418,4.875,2.011,7.375c0.58,2.445,0.11,4.336,1.239,6.664
			c2.093,4.315,6.364,7.342,8.104,11.854c0.44,1.146,1.595,2.445,0.294,2.983c-1.255,0.52-2.271-0.79-3.169-1.711
			c-1.964-2.014-3.707-4.27-5.682-6.291c-0.013,1.016-0.188,1.983,0.258,2.902c0.51,1.057,1.653,2.106,0.479,2.739
			c-1.767,0.954-1.941,3.714-1.241,5.654c1.044,2.892,1.427,3.343,3.878,5.129c2.352,1.713,4.219,3.888,6.604,5.609
			c1.623,1.169,4.612,0.879,6.582,0.901c2.334,0.028,4.441-0.56,2.376-3.03c-1.144-1.364-4.4-0.229-6.116-1.016
			c-2.79-1.278-4.431-4.304-5.388-7.013c0.863-0.254,1.729-0.509,2.595-0.764c0.384-0.112,1.287,2.102,2.02,2.294
			c1.953,0.514,2.775,3.138,4.769,3.854c1.622,0.584,3.77,0.825,4.727,2.315c0.689,1.07,1.368,2.17,2.153,3.175
			c1.041,1.326,2.951,1.949,4.209,3.072c3.462,3.096,7.805,4.597,12.121,6.141c1.924,0.686,2.915,0.966,4.938,0.878
			c2.414-0.105,2.782,1.682,4.128,3.646c2.337,3.407,6.488,4.648,10.121,6.521c3.099,1.598,6.393,3.411,9.676,4.563
			c3.642,1.277,7.732,1.785,11.495,2.655c1.577,0.364,3.45,2.086,4.827,2.926c1.521,0.931,2.835,1.505,4.516,2.118
			c0.978,0.356,4.696,1.059,5.201,1.978c0.824,1.503,1.638,4.229,3.163,5.078c2.554,1.415,2.198,1.735,2.304,4.675
			c0.104,3.005,4.163,1.195,4.474-0.675c0.068-0.401-1.703-1.479-0.639-1.995c0.859-0.417,2.988,0.501,3.409-0.707
			c0.43-1.241-0.477-2.588,1.384-2.131c1.506,0.369,2.991,0.979,4.521,1.229c4.481,0.729,8.64-0.521,13.054-1.348
			c7.506-1.406,13.057-6.933,16.852-13.26c0.84-1.397,2.35-4.785,3.812-5.479c0.451-0.214,0.911,0.586,1.686,0.021
			c0.547-0.4,0.975-1.035,1.366-1.573c0.699-0.958,1.234-1.844,1.71-2.917c0.573-1.29,0.756-1.319,0.323-2.44
			c-0.574-1.489,2.391-2.643,3.195-3.48c0.928-0.963,0.359-3.112,1.155-3.808c0.521-0.455,2.616-0.358,3.306-0.455
			c2.296-0.313,4.911-0.626,7.085-1.41c1.098-0.396,3.188-0.9,3.969-1.747c0.779-0.848,1.104-2.892,1.521-3.981
			c3.655,2.09,7.621,0.016,8.053-4.322c0.042-0.429-0.227-2.105,0.229-2.102c0.997,0.012,1.996,0.05,2.994,0.015
			c2.062-0.072,4.108-0.138,6.172-0.111c1.991,0.022,3.886,0.231,5.863,0.479c0.817,0.1,1.645,0.16,2.467,0.239
			c0.87,0.083,1.667-0.921,2.517-1.006c1.633-0.163,3.837,1.104,5.526,1.295c2.138,0.239,3.953,0.735,6.018,1.371
			c-1.263,0.652-4.003,1.352-3.619,3.323c-0.004-0.022,2.58,4.373,2.151,4.263c4.872,1.28,9.467,2.062,13.649,5.103
			c0.913,0.664,4.402,2.771,4.67,3.729c0.4,1.46-2.441,5.359-3.194,6.455c-2.125,3.081-4.039,6.271-6.351,9.22
			c-1.182,1.506-2.595,2.614-4.061,3.853c-0.884,0.748-0.556,4.391-0.461,5.588c0.086,1.084-0.417,1.441-1.087,2.313
			c-0.438,0.566-0.155,2.011-0.163,2.705c-0.021,1.776-2.15,3.373-3.63,4.026c-3.888,1.728-0.299,7.938,0.654,10.714
			c0.163,0.479-2.836,3.043-3.335,3.092c-1.131,0.11-1.694-0.214-1.71,0.981c-0.017,1.177-0.028,2.353-0.044,3.526
			c-0.021,1.85,2.241,0.788,1.443,2.94c-0.454,1.226-1.428,2.586-1.558,3.841c-0.141,1.354-2.209,2.353-1.396,3.75
			c1.044,1.788,1.625,2.231,3.445,3.254c-1.813,1.447-2.313,1.638-2.552,3.938c-0.139,1.331,0.145,3.632-1.233,4.026
			c-1.879,0.539-2.214,2.634-0.029,2.829c0.874,0.079,1.369-0.198,1.357,0.707c-0.005,0.505,0.257,2.127-0.146,2.46
			c-1.345,1.111-2.658,2.199-3.907,3.417c-1.448,1.412-1.005,4.973-1.312,6.92c-0.505,3.213-4.07,5.425-6.861,6.779
			c-2.797,1.354-4.226,5.609-6.836,7.394c-2.205,1.505-3.503,1.51-5.069,3.979c-1.251,1.972-2.192,2.336-3.654,0.405
			c-0.701-0.925-3.008-1.749-4.146-1.805c-2.385-0.117-2.938,0.975-3.876,2.793c-0.615,1.191-1.771,3.361-1.479,4.72
			c0.438,2.062,2.493,1.4,3.982,1.313c-1.118,1.03-3.242,2.306-3.896,3.667c-0.46,0.957-0.922,1.913-1.383,2.869
			c-0.371,0.771,0.167,1.858-0.095,2.66c-0.214,0.649-1.021,0.798-1.171,1.563c-0.195,0.978-0.476,1.969-0.581,2.959
			c-0.207,1.925-0.402,3.849-0.66,5.769c-0.538,4.012-1.405,8.224-1.201,12.295c0.104,2.053-0.01,3.605,2.123,4.569
			c2.269,1.026,3.925,1.421,6.399,1.743c-0.523,2.224-1.34,2.528-3.229,3.878c-1.161,0.83-3.266,2.191-3.474,3.612
			c-0.562,3.833-2.804,6.913-5.922,9.195c-0.901-3.013-2.773-7.593-2.396-10.766c0.184-1.542,1.515-3.349,1.972-4.924
			c0.615-2.112,0.934-4.163,1.259-6.343c0.147-0.995-2.813-0.923-3.81-1.039c-2.479-0.287-4.655-1.171-7.063-1.59
			c-4.269-0.744-8.399-0.824-12.716-0.878c-3.54-0.044-7.117-0.233-10.655-0.107c-3.606,0.128-8.496-0.381-10.995,2.405
			c-2.396,2.671-6.146,3.227-9.188,4.853c-2.726,1.456-6.182,4.764-9.14,5.129c-2.44,0.305-3.646,0.456-5.677,1.776
			c-1.339,0.869-1.923,3.214-2.613,4.619c-0.715,1.455-0.854,3.372-1.495,4.918c-0.568,1.375-2.409,2.741-3.604,3.646
			c-2.229,1.691-4.909,5.014-5.839,7.687c-1.104,3.186-0.856,6.813-0.802,10.231c0.563-0.134,1.125-0.268,1.688-0.398
			c0.2,3.394,0.016,7.347,1.405,10.511c0.644,1.458,0.801,3.196,1.805,4.396c1.607,1.924,2.12,2.282,4.575,2.659
			c1.396,0.214,4.313-0.333,5.319,0.494c1.733,1.424,0.222,3.456-1.075,4.726c-2.657,2.592-3.754,7.155-4.376,10.633
			c-0.188,1.057-0.59,1.964-0.844,2.998c-0.273,1.131,0.121,2.373-0.208,3.471c-0.52,1.743-2.157,2.343-3.139,3.942
			c-1.048,1.706-0.846,3.65-2.977,3.93c-1.542,0.202-2.057,3.961-2.397,5.057c-0.563,1.813-1.46,3.449-2.324,5.128
			c-0.85,1.648-0.801,3.37-0.958,5.146c-0.145,1.641-1.723,3.094-1.739,4.564c-0.011,0.77,0.244,2.071-0.033,2.781
			c-0.35,0.889-1.629,1.473-2.133,2.29c-1.054,1.704-1.529,3.124-2.854,4.769c-0.959,1.189-2.822,1.931-4.268,2.42
			c-1.563,0.531-4.079,1.021-5.264,2.263c-1.343,1.412-1.849,5.05-2.897,6.865c-0.788,1.364-0.771,3.271-1.438,4.755
			c-0.902,1.994-1.559,3.955-2.214,6.047c-0.538,1.717-1.313,2.735-0.922,4.532c0.404,1.86,0.729,3.786-0.568,5.263
			c-1.111,1.268-3.354,0.254-4.872,0.67c-1.555,0.425-3.146,1.793-4.395,2.796c-1.499,1.209-3.258,2.07-3.794,3.945
			c-0.539,1.883-0.736,3.871-2.688,4.493c-3.536,1.131-3.563,6.629-6.706,7.879c-2.637,1.047-2.729,1.225-3.766,3.887
			c-0.621,1.601-2.014,2.884-2.888,4.371c-0.94,1.602-1.93,3.057-3.104,4.503c-1.739,2.147-2.143,2.588-2.348,5.339
			c-0.31,4.134-2.686,5.91-5.104,8.979c-1.193,1.514-1.807,2.66-1.829,4.528c-0.008,0.646-1.363,0.75-1.698,1.229
			c-0.495,0.709-0.075,1.971-0.586,2.717c-1.24,1.813-2.226,3.646-3.225,5.598c-1.15,2.25-2.84,3.824-3.363,6.287
			c-0.442,2.093-0.486,4.572-2.851,4.781c-1.484,0.127-2.386,2.906-3.429,4.068c-1.578,1.76-3.543,1.783-4.325,4.184
			c-0.704,2.162-1.614,3.438-3.104,5.154c-0.578,0.668-1.415,0.723-2.261,0.965c-0.621,0.18-1.082,1.465-1.411,1.998
			c-0.409,0.662-1.715,0.426-2.212,0.971c-0.638,0.699-0.704,3.095-1.142,4.097c-0.854,1.959-2.709,2.375-4.579,3.28
			c-1.584,0.771-3.138,2.269-4.699,3.201c-1.504,0.9-3.188,1.111-4.852,1.646c-1.539,0.494-2.865,2.09-3.865,3.334
			c-1.307,1.625-1.422,2.407-3.401,2.901c-2.003,0.504-3.468,1.23-5.286,2.226c-3.035,1.659-4.281,4.646-6.938,6.866
			c-1.312,1.097-3.226-0.461-4.756-0.2c-2.375,0.399-3.416,1.448-5.117,3.106c-1.771,1.729-9.059,0.103-9.853-2.42
			c-1.386-4.389-0.794-8.897-1.021-13.453c-0.165-3.278-4.323-6.098-6.905-7.506c-1.842-1.002-2.902-1.229-5.018-1.377
			c-0.966-0.063-2.469-0.461-3.3,0.18c-0.926,0.711-1.611,2.099-2.639,2.597c-0.856,0.416-4.146,2.744-4.841,2.506
			c-0.591-0.205-2.239-0.435-2.392-1.072c-0.284-1.197-0.421-1.51-1.274-2.383c-0.936-0.961-2.207-3.992-1.723-5.391
			c0.444-1.285,1.922-2.318,1.938-3.767c0.015-1.117,0.026-2.236,0.041-3.354c0.021-1.828-0.547-2.685-2.216-3.711
			c-0.389-0.24-1.776-1.398-2.067-1.021c-0.584,0.762-0.951,1.4-1.809,1.813c-3.803,1.844-5.499,4.01-5.552,8.268
			c-0.013,1.021,0.013,1.932-0.246,2.914c-0.312,1.186-0.556,0.738-1.692,0.82c-2.051,0.146-3.185-0.188-4.61-1.74
			c-2.778-3.023-3.81-7.937-1.703-11.447c1.782-2.971,6.296-3.217,8.194-6.125c1.056-1.61,2.017-3.264,2.98-4.932
			c0.303-0.523,1.889-0.83,2.429-1.222c1.173-0.85,1.597-2.479,2.745-3.463c0.014,1.218-0.104,2.369-0.254,3.576
			c0.453-0.086,2.086-0.129,2.13-0.598c0.088-1,0.492-2.154-0.104-2.996c-1.517-2.139-1.846-3.031,0.113-4.941
			c1.228-1.196,2.626-1.996,4.107-1.422c1.173,0.453,2.041-0.278,2.459-1.362c0.164-0.425,1.263-3.673,0.841-4.105
			c-0.017-0.014-0.111,0.16-0.099,0.174c0.841-4.932,2.025-10.014,5.774-13.475c1.982-1.832,4.651-3.153,6.035-5.538
			c1.221-2.104,1.759-4.646,2.885-6.83c2.655-5.153,3.971-10.792,6.98-15.781c1.52-2.516,0.764-6.828,1.409-9.797
			c0.54-2.48,1.105-6.025,4.114-3.821c0.962-1.57-0.935-1.897-2.065-2.166c-1.261-0.297-0.991-1.001-1.205-2.264
			c-0.274-1.628,0.454-3.727,0.663-5.369c0.575-4.545,0.831-7.79,0.048-12.272c-0.631-3.603-0.104-7.158-1.153-10.689
			c-1.128-3.797-1.974-7.469-3.54-11.113c-1.425-3.313-3.008-6.406-5.016-9.422c-2.229-3.345-5.014-5.328-7.786-8.172
			c-2.411-2.47-5.147-6.271-8.163-7.824c-3.864-1.99-7.658-2.297-11.941-2.35c-1.563-0.019-3.107,0.336-4.651,0.574
			c1.762-1.42-6.479-4.448-8.041-4.747c-1.668-0.319-4.311-0.286-5.781-1.105c-1.467-0.815-2.257-2.908-3.63-3.903
			c-3.313-2.398-6.604-4.824-9.896-7.251c-1.279-0.944-2.161-3.005-3.057-4.316c-1.04-1.523-2.615-2.733-3.809-4.145
			c-2.187-2.584-4.397-6.199-8.021-7.069c-1.688-0.405-3.431-0.714-5.07-1.288c-2.652-0.929-5.213-0.687-7.857-1.248
			c-3.875-0.825-7.103-2.381-10.677-4.072c-1.792-0.847-3.54-1.707-5.276-2.661c-1.853-1.017-2.997-3.012-4.317-4.635
			c-2.813-3.459-6.521-8.005-6.902-12.593c-0.236-2.863-0.022-5.765,0.012-8.576c0.022-1.908-0.14-6.373,1.43-7.75
			c4.076-3.58,8.354-6.812,11.979-10.852c0.495-0.557,2.022,0.926,2.924,0.046c0.985-0.962,2.077-1.813,3.134-2.696
			c1.026-0.855,1.79-2.068,2.626-3.105c0.432-0.535,2.763-0.261,3.473-0.295c-0.024,0.009-0.25,0.142-0.252,0.147
			c0.206-0.958,3.31-2.66,3.993-3.193c1.084-0.846,2.169-1.69,3.255-2.538c1.541-1.201,4.295-1.709,6.151-2.257
			c-0.357-2.023,7.523-0.989,8.105-0.093c-0.007-0.011-0.283-0.024-0.316-0.021c2.323,0.339,7.523,1.002,9.215-0.947
			c2.218-2.556,3.896-5.508,6.469-7.703c2.321-1.982,5.363-4.084,7.105-6.555C665.001,578.21,666.971,575.395,668.939,572.576"/>
		<path class="st3" d="M390.792,1267.012c2.093-9.866,1.909-19.069,0.237-28.953c-0.724-4.262,0.243-9.053,0.824-13.274
			c0.61-4.459,5.131-8.031,4.972-12.217c-0.074-1.97-1.407-4.785-0.979-6.546c0.647-2.655,1.898-3.489,3.549-5.635
			c1.485-1.926,2.437-4.596,4.407-6.113c2.14-1.645,2.757-4.288,5.399-5.248c5.104-1.854,2.074-9.786-0.481-12.932
			c-1.438-1.77-8.713-10.104-7.41-11.893c2.085,3.229,6.595,5.338,9.551,7.678c3.415,2.707,4.48,6.158,5.39,10.189
			c3.673-3.312,8.444-5.308,12.705-7.791c4.443-2.595,8.515-6.353,13.145-8.437c4.574-2.057,8.62-6.467,13.203-8.01
			c3.277-1.103,4.79-2.037,7.404-4.318c1.819-1.59,4.178-2.373,5.937-4.065c-1.688-1.589-3.724-3.093-5.167-4.908
			c-2.276-2.863-3.319-6.037-5.239-9.082c-3.156-5.01-12.591-4.148-13.505-10.088c3.986,2.114,7.976,4.235,11.961,6.362
			c3.307,1.769,8.542,4.529,11.236,7.183c1.935,1.896,3.096,4.688,4.956,6.719c2.528,2.752,2.804,1.707,5.965,0.314
			c1.729-0.761,4.306,0.651,5.438-1.783c0.627-1.349,0.149-5.765-1.827-5.494c0.356-3.439,3.416-6.521,5.167-9.41
			c2.127,2.559,2.791-0.965,4.852-0.781c1.961,0.174,3.995,4.693,6.038,5.336c1.696,0.533,3.599-0.539,5.27-0.354
			c2.604,0.283,3.383,1.838,4.585,3.844c-6.313,1.89-14.957,1.701-19.654,6.287c5.308,0.063,10.479-1.549,15.759-2.07
			c2.42-0.235,4.511-0.879,6.774-1.815c2.203-0.912,3.361-2.664,5.766-3.558c-1.876,2.175-3.854,3.06-2.55,5.744
			c0.702,1.449,4.146,1.111,5.402,3.045c1.792,2.765,9.859,4.277,12.381,2.134c-3.387-1.188-3.618-4.646-4.069-7.752
			c-0.463-3.181,1.173-5.465,1.95-8.482c1.106,0.82,1.396,1.951,1.74,3.195c0.244,0.881-0.868,1.094-0.959,1.864
			c-0.107,0.927,0.665,0.916,0.291,2.109c-0.263,0.838-0.333,1.279-0.343,2.158c-0.031,2.532,3.338,9.313,6.52,5.59
			c1.226-1.435,2.34-2.855,3.693-4.174c0.471-0.461,1.688-0.451,1.99-0.904c0.449-0.678,0.172-1.955,0.453-2.729
			c0.727-1.98,5.234-8.724,0.105-8.627c1.42-1.992,0.682-4.574-1.62-5.181c-2.125-0.559,0.007-3.438-3.32-3.936
			c-2.607-0.39-3.195,2.084-4.875-1.025c-0.83-1.537-4.376-2.838-4.727-0.58c-0.119,0.765-1.494,6.5-2.643,4.404
			c-0.592-1.08,1.086-4.521,0.496-6.203c-0.356-1.021-4.021-2.979-4.234-1.514c-0.312,2.129-0.43,5.678-3.188,5.946
			c1.455-1.756,2.127-3.86,1.338-6.09c-1.525,0.695-3.583,2.244-5.153,2.572c-2.309,0.484-4.008-0.404-4.801,2.359
			c-0.48-0.777-0.964-1.558-1.444-2.334c-0.151,0.84-0.303,1.682-0.453,2.521c-1.688-0.143-0.952-1.654-0.858-3.029
			c0.116-1.702,2.09-1.438,3.621-1.78c1.412-0.316,6.781-1.242,7.322-2.119c0.646-1.049-1.178-1.818-2.096-2.188
			c-1.968-0.782-1.931-1.147-2.677-3.166c-0.928-2.494-1.416-5.207-2-7.799c-1.438-6.383-1.865-11.735-0.975-18.225
			c0.35-2.543,0.147-5.377,1.194-7.738c1.756-3.963,1.172-4.051-2.69-5.729c1.672,0.02,4.512,0.735,5.289-0.861
			c1.04-2.141,2.389-4.635,0.7-6.854c1.757,1.476,3.765,2.845,6.093,0.918c0.952-0.788,0.757-3.014,1.73-3.771
			c0.724-0.559,2.464-0.574,3.41-0.916c2.351-0.848,5.154-1.672,7.188-3.125c0.825-0.588,2.227-2.115,3.262-2.104
			c0.723,0.011,3.742,0.464,3.995-0.207c2.186-5.788,4.922-7.832,10.907-9.315c3.139-0.777,2.867-4.441,4.563-6.869
			c1.866-2.67,2.255-3.525,3.239-6.697c0.927-2.977,1.881-4.047,4.275-5.881c1.055-0.809,2.059-7.604,2.698-9.326
			c2-5.375,4.234-10.606,6.601-15.836c0.761-1.68,2.438,0.18,1.464-2.242c-0.635-1.58-0.207-2.063,0.412-3.686
			c0.875-2.287,0.988-5.221,2.531-7.156c1.307-1.637,4.223-4.563,6.202-5.361c2.139-0.86,5.048,1.107,7.347,1.668
			c0.699-1.713-0.065-2.44-1.109-3.618c-1.029-1.162-0.66-2.062-0.567-3.632c0.099-1.729,0.176-1.897,1.349-3.168
			c0.945-1.024,2.903-0.68,3.632-1.539c0.261-0.309,0.248-3.43,0.322-3.938c0.22-1.514,1.178-1.603,2.49-2.236
			c1.653-0.805,0.474-1.479,1.506-2.612c0.963-1.062,2.542-1.859,3.82-2.479c2.394-1.162,2.375-4.709,4.484-5.313
			c3.957-1.138,1.513-3.189,1.548-6.222c0.056-4.383,2.756-11.354,6.223-14.242c4.78-3.987,9.917-8.737,12.854-14.227
			c1.378-2.57,2.388-3.912,3.127-6.834c0.23-0.91,1.477-2.193,2.353-2.52c0.493-0.185,4.175-2.134,1.492-2.662
			c-3.232-0.642-4.272-0.906-6.513-3.354c-2.705-2.955-2.359-5.35-2.545-9.256c-0.07-1.455,0.011-5.568-1.223-6.512
			c-1.696-1.295-2.932-1.795-3.861-3.82c-0.572-1.244-2.401-1.436-3.145-2.553c-3.022-4.535-1.845-8.248-0.79-13.365
			c0.351,0.332,0.918,0.455,1.253,0.807c-0.853-3.227,6.637-15.053,9.115-9.521c-1.136,0.949-5.175,3.145-4.16,4.527
			c0.996,1.362,3.771-0.853,4.951-1.769c0.756-0.586,1.817-0.834,2.697-1.182c1.393-0.556,0.856-1.996,1.419-2.783
			c1.503-2.104,4.141-2.754,4.173-5.613c0.017-1.229,2.336-3.838,3.352-4.412c1.542-0.875,4.705-0.096,4.837-2.03
			c0.303-4.476,2.082-7.793,1.515-12.244c-0.86,1.307-1.795,2.959-3.234,3.686c-0.501,0.252-4.493,1.205-4.726,1.588
			c-1.483,2.443,4.333,2.828,5.358,0.854c0.062,3.821-2.91,3.354-5.563,4.756c-1.69,0.896-2.448,2.658-4.171,3.492
			c-1.93,0.938,0.613,3.211-1.626,3.928c-1.893,0.604-2.479,1.115-4.592,1.24c-2.596,0.153-1.137-0.927-3.375-1.595
			c-2.003-0.6-5.229,4.316-5.935,0.976c-0.646,0.801-2.472,3.274-3.518,3.43c-0.914,0.135-4.182-1.438-5.244-1.703
			c-0.958-0.235-2.817,2.769-4.229,1.744c-1.688-1.221,2.289-2.592,3.056-2.723c1.789-0.302,2.722-1.379,4.032-2.398
			c0.675-0.526,3.231,1.226,3.478-0.354c0.291-1.865,1.831-0.519,3.093-0.986c1.632-0.607,1.867-3.068,3.798-0.742
			c0.02-0.531,0.454-1.043,0.492-1.574c1.981,1.564,1.933-0.885,3.184-2.014c0.583,0.688,1.435,1.197,2.349,1.449
			c0.187-1.494,1.112-5.103-0.733-5.896c-3.324-1.434-1.827-2.674-0.866-5.174c0.28,0.875,1.781,6.928,3.733,4.547
			c0.544-0.662-0.103-0.647-0.604-1.291c-1.166-1.494,0.532-0.549,0.786-0.684c0.331-0.174,1.495,0.127,1.863,0.156
			c0.788,0.065,0.229-1.021,0.521-1.547c0.237-0.423-0.426-0.906-0.06-1.5c0.442-0.722,1.043-1.334,1.593-1.976
			c0.98-1.149,0.598-2.856,1.239-3.754c0.559-0.781,3.004-1.588,3.044-2.16c0.143-1.949,0.515-3.895,0.527-5.85
			c-2.425,2.143-0.705,4.746-3.449,6.246c-0.977,0.532-2.476,0.864-3.276,1.565c-0.806,0.705-1.085,2.935-2.105,2.717
			c-0.774-0.166-4.136-0.686-3.74-2.313c0.356-1.478,2.786-0.73,2.629-1.939c-0.382-2.926,3.618-2.914,1.894-6.373
			c-0.747,1.271-2.06,4.73-4.309,3.736c-2.267-0.998,0.432-4.666-2.634-4.139c1.434,1.516,0.142,4.229-0.075,6.158
			c-0.958-1.267-1.706-2.837-3.275-3.355c-0.128,2-0.258,3.996-0.388,5.996c-0.99-1.975-2.524-3.758-1.98-5.947
			c0.484-1.949,0.741-3.901,0.861-5.908c-4.108,0.72-2.63,3.308-3.082,6.752c-4.114-0.268-2.433-0.981-3.259-4.618
			c-0.009,1.653-1.096,2.065-2.479,2.521c-1.312,0.437-0.936,1.48-1.529,2.48c-0.411,0.69-2.44,2.026-1.286,2.913
			c0.771,0.595,2.084,1.742,3.063,1.365c1.385-0.535,3.38-3.807,5.146-2.145c3.146,2.973-2.563,3.737-3.492,4.703
			c0.151-0.158,3.122,4.854,3.682,5.563c-1.244-0.861-2.827-2.545-3.909-0.668c-0.435,0.754-0.586,3.012-1.784,2.623
			c-0.578-0.189-1.351,0.053-1.91,0.32c0.298-2.299,0.228-4.72,1.974-6.447c-1.387,0.324-4.429,0.609-4.451,2.447
			c-0.008,0.705,0.2,1.146-0.387,1.526c-1.04,0.675-0.486,1.556-0.6,1.64c-1.391,1.055-3.759,0.141-3.976,2.164
			c-0.085,0.807,1.392,2.536,1.375,3.789c-0.016,1.268,5.958,0.067,7.107-0.056c1.647-0.176,1.828,1.049,2.848-1.176
			c0.514-1.111,2.572-1.291,3.651-1.113c-0.296,0.5-0.201,1.23-0.495,1.732c2.198,0.082,4.315-0.222,6.48-0.558
			c-2.829,2.763-6.521,3.42-10.47,4.201c-1.438,0.285-13.061,1.066-8.097,3.414c-1.706,1.164-5.723,1.236-6.559,2.656
			c1.208,0.416,2.253,1.262,2.919,2.352c-3.638-0.045-7.073-0.955-10.724-1.182c2.18-0.438,3.653-1.467,5.506-2.672
			c0.554-0.357,2.473-0.365,3.259-0.67c0.799-0.31,1.011-2.178,1.259-2.926c0.466-1.402,1.486-4.834,0.021-6.031
			c-1.392-1.137-5.101,0.096-5.704,1.613c0.01-0.654-0.36-3.81,0.315-4.021c1.198-0.373,3.09,0.705,3.53-0.564
			c0.618-1.778,2.308,0.623,2.338-1.85c0.004-0.334,2.399-0.91,2.969-1.875c-2.593-1.49-0.506-2.531,1.32-2.51
			c1.337,0.016,1.36-2.31,3.789-2.06c-2.382-0.715-8.098-2.5-10.129-0.516c-2.414,2.357-2.32,5.891-6.564,5.574
			c2.315-2.26,2.359-3.566,2.399-6.793c0.01-0.834,0.5-1.027,1.109-1.623c0.889-0.867-0.588-0.785-0.23-1.439
			c0.688-1.262,1.076-1.955,2.764-2.281c0.448,5.49,6.398-0.518,8.864-1.784c-0.769-0.5-1.532-1-2.298-1.502
			c1.813-1.089,6.495-0.591,4.045-3.738c1.608,0.432,2.404-0.303,1.707-1.875c1.917-0.387,3.891,4.108,3.687-0.271
			c-0.055-1.186-1.731-3.37-3.27-2.528c-1.749,0.953-5.515,2.405-5.734,4.725c-0.31,3.227-2.086,3.299-5.066,3.633
			c0.14-1.754,0.306-3.496,0.275-5.258c-1.853,1.135-2.109,4.266-3.523,4.951c-2.201,1.065-4.456,1.664-6.42,3.102
			c-2.573,1.881-3.757,1.078-4.205,4.529c-0.425,3.27,2.868,1.031,3.893-0.078c2.854,2.111-2.051,3.322-3.329,4.086
			c-0.789,0.474-4.178,4.578-4.385,2.486c-0.15-1.523,0.237-5.063-1.983-5.428c-1.465-0.238-6.745,4.942-6.753,5.627
			c0.033-0.156,0.088-0.306,0.163-0.445c-1.544,1.508-1.639,3.473-3.005,4.807c-1.37,1.336-6.04,4.289-4.841-0.061
			c-2.365,1.922-5.533,3.527-7.655,5.6c-1.707,1.666-1.467,3.564-2.81,5.063c-3.123,3.479-8.059,3.891-8.303,9.106
			c-4.245-0.762-7.563-3.557-10.869-6.235c1.058-0.48,2.115-0.959,3.176-1.438c-2.143-3.1-4.17-6.188-6.105-9.416
			c-1.794-3-2.14-7.026-2.748-10.445c-0.707-3.977-1.234-6.608,1.021-10.028c1.43-2.164,1.088-3.963,1.116-6.398
			c0.03-2.504,1.112-4.957,1.146-7.562c-1.719,0.55-3.285,0.926-5.066,1.201c1.248-2.424,1.31-3.761,1.343-6.512
			c0.025-2.234-2.692-3.344-4.615-2.006c-3.9,2.716-6.597,4.028-11.417,2.521c-4.029-1.265-6.511-5.285-9.346-8.19
			c-0.467-0.477-2.602-1.566-2.709-2.139c-0.144-0.719,1.275-1.528,0.997-2.314c-0.797-2.244-1.399-4.183-1.731-6.536
			c2.656,0.816,2.136-5.575,2.83-7.543c1.288-3.652,2.928-5.914,6.808-6.021c3.816-0.106,7.038,0.29,10.728,1.138
			c2.174,0.499,6.916,4.314,8.382,2.884c3.019-2.943-4.671-4.856-6.248-5.549c-3.314-1.455-5.639-2.323-9.465-1.635
			c-5.091,0.915-18.491-1.16-19.852,6.12c0.561,0.007,2.797-0.314,3.157,0.038c0.167,0.163,0.125,3.172-0.041,3.365
			c-1.991,2.352-4.822-1.587-4.872,2.469c-0.023,2.099-0.329,4.59-2.589,5.126c-2.723,0.645-1.979-3.109-1.833-4.97
			c-4.093,3.659-8.813,5.888-12.911,9.553c-1.897,1.697-4.673,2.677-6.417,4.313c-0.733,0.691-1.266,2.561-2.094,3.471
			c-0.801,0.879-3.296,0.687-4.449,0.838c-1.35,0.176-2.875,4.703-3.806,5.822c-1.659,1.997-4.053,4.179-4.865,6.734
			c-1.932,6.08-1.696,11.412-1.186,17.73c0.453,5.639,0.125,11.43,0.18,17.088c0.021,2.268,0.927,4.614,0.771,6.858
			c-0.188,2.687-1.793,5.238-2.04,7.938c-0.188,2.072,0.338,6.457-1.237,7.922c-2.646,2.459-4.474,4.49-6.45,7.498
			c-3.034,4.615-4.331,10.225-7.161,14.961c-2.985,4.998-6.817,9.102-11.188,12.854c-1.811,1.556-3.71,3-5.55,4.521
			c-2.443,2.016-4.943,0.525-7.905,1.059c-2.958,0.535-4.349,1.41-7.452,1.263c-2.941-0.144-4.86,0.463-4.373,4.055
			c0.399,2.961,0.767,5.361,0.329,8.299c-0.4,2.691-2.564,4.736-2.928,7.322c-0.815,5.838-0.771,11.883-3.531,17.074
			c-2.759,5.188-0.56,10.764-1.438,16.432c-0.902,5.818-3.921,9.824-5.604,15.346c-0.667,2.189-3.477,3.521-3.495,5.148
			c-0.036,3.002-1.663,5.229-2.326,8.107c-0.545,2.366-1.121,4.666-1.981,6.938c-0.43,1.141-0.733,3-1.585,3.896
			c-1.019,1.075-2.167,1.989-2.713,3.377c-1.09,2.76-2.256,4.848-3.966,7.282c-1.503,2.146-3.664,3.564-5.16,5.648
			c-1.755,2.441-3.535,4.633-5.554,6.865c-1.666,1.842-2.845,5.272-4.371,7.404c-1.585,2.223-1.946,4.563-3.529,6.313
			c-1.512,1.672-3.751,4.301-5.668,5.344c-2.313,1.256-5.486,2.304-7.264,4.283c-1.727,1.926-3.313,5.039-5.738,5.865
			c-3.02,1.03-5.494,1.787-8.649,2.1c-2.313,0.229-4.31,3.865-5.816,5.226c-1.739,1.563-4.476,3.625-6.582,4.551
			c-0.918,0.401-3.002,0.172-3.535,1.063c-0.849,1.416-1.605,2.525-2.729,3.73c-1.604,1.719-1.316,4.641-2.927,6.674
			c-0.692,0.873-1.771,1.563-2.606,2.313c-0.674,0.605-1.348,1.207-2.023,1.812c-0.53,0.477,0.078,1.271-0.282,1.711
			c-1.427,1.723-4.096,3.771-6.015,4.959c-1.755,1.086-3.12,5.018-4.404,6.725c-2.108,2.804-3.403,3.435-6.636,4.857
			c-1.044,0.459-2.582,0.322-3.712,0.434c-1.155,0.115-2.737,2.125-3.589,2.854c-4.726,4.035-4.685,9.895-7.815,14.846
			c-1.182,1.869-1.183,1.758-3.42,1.729c-0.996-0.013-1.593,1.957-2.146,2.711c-0.5,0.682-1.444,2.299-2.317,2.287
			c-1.951-0.021-3.074-0.354-4.498,1.036c-2.287,2.232-4.067,2.439-7.078,2.4c-2.561-0.031-5.065,2.447-7.063,3.703
			c-4.03,2.535-7.197,5.895-11.85,8.15c-1.572,0.764-3.413,4.373-4.634,5.813c-1.641,1.945-2.975,4.265-4.847,5.978
			c-1.588,1.451-4.538,4.049-2.875,6.678c1.72,2.719,4.404,5.836-0.5,4.721c-3.89-0.883-5.439-5.311-9.187-1.883
			c-2.65,2.426-4.124,5.6-6.343,8.438c-1.75,2.242-5.646,2.099-8.382,3.156c-3.471,1.338-5.342-0.092-6.574-3.414
			c-4.65,3.213-8.215,5.541-13.95,5.689c-0.917,0.024-1.831,0.014-2.749,0c-2.337-0.027-1.357,0.024-2.546,1.651
			c-0.329,0.449,0.225,1.019-0.248,1.502c-0.591,0.604-1.182,1.207-1.772,1.813c-0.91,0.93-0.861,2.287-0.67,3.453
			c0.092,0.563-3.257,3.947-3.802,5.094c-1.119,2.357-2.998,3.807-5.004,5.428c-1.829,1.479-3.443,2.99-4.774,4.933
			c-1.524,2.229-3.77,2.776-6.254,3.715c0.921,2.451,5.352,1.227,5.312,4.53c-0.047,3.892-2.758,3.498-5.945,3.462
			c-3.856-0.05-1.013,3.145-3.467,4.938c-0.688,0.506-3.466,1.607-3.688,2.146c-0.488,1.176-0.973,2.662-1.807,3.647
			c-1.872,2.213-3.354,3.015-3.931,6.242c-0.114,0.631-0.117,1.537-0.382,2.127c-0.155,0.344-1.354,0.264-1.481,0.61
			c-0.415,1.134-0.038,3.087-0.053,4.345c-0.047,3.862-0.834,5.68,2.544,7.91c2.188,1.444,5.903,4.26,4.215,7.403
			c-1.174-3.668-1.242-3.741-4.851-4.994c-3.759-1.303-3.58-1.575-4.494-5.434c-1.576,1.072-1.967,2.832-3.204,3.75
			c-0.44,0.326-1.4-0.205-1.948,0.152c-0.742,0.479-1.606,0.908-2.282,1.479c-0.474,0.4-3.41,3.181-3.414,3.748
			c-0.013,1.666,2.777,1.695,1.427,3.808c-1.413-1.063-2.48-2.742-4.099-1.771c-2.096,1.254-2.011,1.974-2.607,4.371
			c-0.649,2.615,6.655,5.068,5.091,8.959c-1.028-1.156-3.229-4.25-4.93-4.271c-2.734-0.033-5.706,0.598-3.277,3.959
			c0.933,1.291,4.997,2.858,2.348,4.926c-2.483,1.938-1.57,3.381-1.223,6.457c-2.208-1.813-2.06-1.885-1.671-4.724
			c0.392-2.848,1.228-3.063-1.467-5.271c-2.564-2.104-8.234,2.031-9.008,4.795c-0.631,2.248,1.992,8.813,3.136,10.506
			c0.598,0.887,3.817,4.424,3.617,5.363c-0.293,1.383-3.354,2.201-4.253,3.525c1.047-3.111,1.051-4.904-2.669-5.507
			c2.871-3.771-0.031-7.987-2.818-10.559c-1.21,1.684-1.323,1.578-2.948,2.232c-3.161,1.271-0.696,1.944-2.473,3.682
			c-0.504,0.49-1.213,1-1.617,1.578c-0.479,0.686,0.702,1.375-0.25,1.953c-1.913,1.164-0.769,2.383-2.889,3.526
			c-3.511,1.896-2.656,5.185,1.199,5.23c1.604,0.021,2.343,1.926,4.084,1.945c2.09,0.024,3.213-0.105,4.842,1.319
			c-4.299,1.178-10.385-0.494-14.38-2.147c-1.419-0.588-1.008,5.348-0.118,6.26c2.556,2.619,4.219,1.787,7.682,2.332
			c-0.889,0.973-3.746,0.797-3.912,1.426c-0.458,1.742,0.119,2.768,1.747,3.603c-1.481,3.258-6.929-6.595-8.109-8.312
			c-1.033,0.906-5.08,4.312-1.538,5.244c2.59,0.684,2.371,5.91,5.598,7.016c-3.411,1.287-6.777-8.307-9.616-5.592
			c-1.662,1.592-0.049,9.51,0.61,11.336c0.653,1.81,1.307,3.414,2.348,5.017c1.498,2.307,2.654,1.272,5.306,0.756
			c1.458-0.285,3.087-2.697,4.003-1.354c1.022,1.502,3.067,3.166,2.004,5.051c-2.17-2.021-3.658-2.778-6.698-1.858
			c-1.49,0.451-2.72,0.694-3.919,1.668c-0.523,0.428-0.92,2.885-0.295,3.1c6.052,2.103,7.779,6.677,10.305,12.242
			c-2.74,0.258-5.708-6.537-7.712-8.404c-2.906-2.707-6.281-4.498-9.148-7.168c1.035,0.015,4.145,0.627,4.271-0.494
			c0.214-1.903-0.462-2.786-1.348-4.5c-1.973-3.809-2.151-6.446-2.098-10.784c-3.311-0.324-3.062,3.75-4.707,6.151
			c-1.517,2.219-1.261,1.385-0.46,3.258c0.452,1.058,2.939,2.729,2.9,3.824c-0.046,1.267-1.738,2.078-2.689,1.908
			c-2.412-0.435-2.591-0.941-3.641,1.262c-1.44,3.021-2.81,6.051-4.135,9.123c2.058,0.685,4.655,2.49,6.313,0.287
			c0.481,1.502,3.845,7.213,5.998,4.272c0.912-1.241,1.396-2.645,2.966-2.801c1.529-0.149,3.231-0.912,3.423,1.203
			c-0.902-0.01-2.982-0.471-3.601,0.221c-0.697,0.777-2.104,3.136-2.971,3.49c-2.821,1.154-5.144-2.113-7.333-2.828
			c-7.438-2.42-7.735,7.359-6.882,11.916c-3.51-0.793-2.588,5.101-2.615,7.336c1.216-0.104,3.476,0.172,4.466-0.553
			c1.963-1.436,3.508-2.928,6.103-2.896c1.678,0.021,5.156-2.677,6.53-3.634c2.209-1.537,4.276-3.178,6.206-5.055
			c-0.042,4.775-3.734,5.328-7.462,7.697c2.246,0.098,4.488,0.192,6.733,0.293c-2.326,0.485-4.397,1.02-6.619,1.854
			c-1.892,0.709-3.617,0.021-5.409,1.08c-2.111,1.25-3.775,2.297-5.521,4c-1.281,1.252,0.251,4.984,0.333,6.539
			c2.7-0.533,5.802-1.049,8.034-2.85c1.226-0.988,0.741-1.754,2.35-2.365c1.9-0.723,3.804-1.443,5.705-2.168
			c-0.799,3.521-2.425,4.008-5.66,5.322c-2.755,1.121-8.538,2.35-9.828,5.155c-2.18,4.748,4.448,1.746,5.793,1.847
			c3.475,0.26,7.186,0.174,10.587,0.737c-3.683,0.82-6.318,1.927-6.603,6.236c-1.781-0.5-5.404-1.846-7.11-0.656
			c-2.525,1.759-4.171,1.484-6.879,2.488c-1.27,0.471-2.257,0.578-2.965,1.725c-0.943,1.529-0.879,2.58-2.583,1.781
			c-2.625-1.229-5.074-0.817-7.797-0.076c-2.779,0.759-3.355,4.711-3.654,7.025c-0.545,4.225,0.679,4.928,2.137,8.51
			c0.85,2.092,0.019,5.957,0.93,7.49c1.372,2.313,4.664-0.922,6.552-2.236c-0.809,3.134,2.244,1.976,2.632-0.356
			c0.353-2.125,2.254-4.226,3.245-6.279c0.777-1.613,0.883-3.463,1.633-5.059c1.038-2.207,1.466-2.255,3.83-3.322
			c-2.02,2.803-2.774,6.574-3.91,9.848c3.776,1.34,5.921,0.314,8.863-1.787c1.535,2.928-7.857,4.627-9.875,6.004
			c-2.542,1.734-1.517,3.039-1.849,5.853c-0.252,2.143-1.095,4.258-1.761,6.295c1.195-0.813,2.389-1.629,3.583-2.443
			c1.081-0.735,2.171,0.668,2.97,0.207c0.702-0.401,1.093-2.676,2.132-3.434c1.031-0.754,1.896-1.744,2.808-2.635
			c1.434-1.398,1.887-1.277,1.914-3.492c0.015-1.258,0.72-2.09,1.835-2.418c4.465-1.313,5.712-4.219,9.228-7.17
			c-0.946,1.967-1.694,4.563-3.023,6.279c-0.795,1.028-0.698,1.631-2.001,1.77c-0.836,0.09-3.614-0.082-3.927,1.104
			c-0.447,1.698-1.077,1.918-0.253,3.473c0.651,1.229,1.282,2.438-0.49,2.414c0.165,0.002-3.588,4.789-4.544,5.566
			c-1.75,1.422-1.754,4.463-3.584,4.961c-3.221,0.879-0.552,3.274,0.609,5.063c1.648,2.537,2.445,2.029,5.123,2.063
			c2.611,0.032,4.331,1.051,6.831,1.559c-0.75-3.063,6.456-1.813,8.409-1.793c2.732,0.035,5.744,0.496,8.443,0.945
			c3.968,0.659,7.522,1.146,11.562,1.192c2.186,0.027,2.915,0.281,4.505-1.1c1.319-1.146,3.865-1.152,5.556-1.039
			c4.908,0.334,3.154-1.611,3.556-5.188c0.427-3.796,3.913-5.283,7.105-6.4c2.449-0.857,6.502,1.359,8.867,2.221
			c1.623,0.59,1.59,2.266,3.271,1.174c1.514-0.983,2.176-2.639,3.104-4.174c0.833,1.637-1.844,6.496-1.124,7.051
			c2.075,1.597,4.072,3.047,6.175,4.57c4.076,2.951-0.73,3.807-1.115,6.281c-0.335,2.154,1.646,2.68,3.075,3.817
			c0.874,0.697,4.811,4.392,6.147,3.912c0.721-0.26,0.78-2.487,1.507-2.721c0.915-0.291,2.577,2.066,3.555,1.938
			c2.202-0.286,2.85-3.125,5.798-3.088c2.344,0.027,4.538,1.609,6.629,2.607c-0.39-3.777,1.049-6.631,5.468-5.346
			c4.731,1.379,6.837,4.252,9.438,8.258c1.078,1.662,4.203,10.607,5.947,5.039c0.18-0.574-0.075-1.266,0.121-1.801
			c0.286-0.781,1.234-0.438,1.336-1.47c0.22-2.239,0.438-4.479,0.658-6.719c0.78,2.922,1.212,8.465,4.3,9.947
			c-1.898,1.852-3.447,3.262-5.74,4.563c2.814,1.08,9.479,4.707,11.155,0.136c0.469-1.275-0.92-4.644,0.845-4.621
			c2.354,0.029,4.652,0.088,6.996,0.297c-1.078,1.943-3.833,7.147,0.855,7.166c2.744,0.01,4.084-0.518,6.371-2.037
			c1.53-1.018,1.173-3.955,2.03-4.596c0.788-0.59,3.145-0.344,4.238-0.545c3.238-0.59,1.812,3.254,1.431,5.043
			c-0.625,2.944,4.663,2.692,6.016,5.305c0.95,1.836,1.368,3.15,1.75,5.191c0.176,0.934,3.956,0.51,4.842,0.461
			c2.824-0.154,7.129,1.188,9.614,0.346c1.972-0.668,8.885-0.982,8.366-3.555c-0.284-1.406-0.595-3.229,1.272-3.888
			c1.283-0.45,0.917,4.72,0.827,5.373c1.357,2.662,4.857-0.373,6.105-1.672c3.054-3.182,3.181-0.885,6.981-1.114
			c2.311-0.144,5.458-2.187,7.491-3.125c1.123-0.521,0.772-1.298,0.787-2.476c0.021-1.768,0.943-1.621,2.553-2.27
			c-0.388-0.097-0.958-0.15-1.269-0.425c0.379,0.332,3.585-0.229,4.65-0.135c2.396,0.215,2.964,0.771,4.806,2.342
			c-0.316-4.473,2.12-4.123,5.131-6.463c1.265-0.981,2.418-1.893,2.938-3.391c0.909-2.619,0.244-2.242-2.224-3.336
			c1.985-1.197,14.438-0.652,9.116-6.889c-5.076-5.949,2.914-7.939,6.47-11.025c2.06-1.787,2.854-3.871,5.226-5.41
			c2.354-1.527,3.644-3.551,5.694-5.406c4.206-3.809,10.686-7.233,11.271-13.332c0.538-5.627,1.268-9.863,4.875-14.553
			c2.071-2.693,3.313-4.186,6.203-5.902c1.148-0.684,2.391-0.604,3.722-0.727c1.671-0.154,3.063-1.078,4.567-1.807
			c4.836-2.347,11.3-1.283,15.899-3.525c0.625-0.305,0.452-1.014,1.25-1.068c0.563-0.041,1.618,0.086,2.133-0.151
			c0.718-0.33,2.421-1.3,2.232-2.095c-0.295-1.246-1.468-1.887-1.749-2.951c-0.34-1.286,0.482-3.221,0.896-4.411
			c0.221-0.627,0.437-1.257,0.654-1.888c-1.313,1.154-2.347,1.978-3.915,2.734c-0.755,0.367-1.646-0.018-2.464,0.313
			c-0.393,0.158-0.461,2.357-0.844,3.011c-2.286,3.887-5.692,4.672-9.759,5.524c0.568-2.463,3.271-2.172,4.468-3.944
			c0.936-1.39-0.038-3.035,2.352-2.918c-3.632-1.199,1.644-3.146,3.265-3.771c2.989-1.153,3.573-3.231,0.034-3.272
			c-2.974-0.037-2.748-2.859-5.974-2.33c-1.856,0.305,2.616-4.857,2.64-4.938c1.904-2.364,2.399-3.271,2.813-6.28
			c-4.213,0.146,1.835-2.636,2.979-3.095c-0.14,0.058-0.273,0.123-0.416,0.179c2.152-1.445,2.21-3.029,2.697-5.363
			c0.543-2.603,1.086-2.762,2.769-4.779c1.383-1.658,2.507-3.623,3.843-5.342c0.298-0.383-1.532-2.422-1.274-3.562
			c0.812-3.561,4.271-5.842,4.311-9.038c0.014-1.107-2.444-2.232-2.902-3.589c-0.438-1.291,0.051-3.055,0.268-4.309
			c0.685-3.957,2.232-6.84,3.418-10.621c0.506-1.61,1.179-3.229,2.237-4.576c0.873-1.108,3.317-2.313,3.446-3.752
			C379.358,1278.536,387.543,1272.188,390.792,1267.012"/>
		<path class="st3" d="M146.798,1474.963c-1.753-0.293-2.887-0.428-4.622-0.102c-0.804,0.147-1.317,3.035-1.456,3.928
			c-0.273,1.768-0.731,3.566-0.491,5.363c0.265,1.981,2.661,4.108,3.631,5.93c1.654,3.105,1.979,6.701,0.947,10.037
			c-0.568,1.836-1.709,1.85-3.201,2.941c-1.134,0.825-2.667-1.035-3.335-2.103c-0.031,2.482,0.628,4.486,2.075,6.566
			c0.823,1.184,2.91,3.396,1.434,4.26c-0.971,0.565-2.544,0.18-3.646,0.33c-3.212,0.436-4.171,2.088-5.493,4.86
			c-0.488,1.025,0.594,1.687,0.98,2.66c0.52,1.308,0.599,2.744,0.478,4.111c-0.14,1.561-0.64,1.979-1.665,3.203
			c-0.638,0.762-2.222,1.045-2.582,1.879c-0.308,0.713-0.615,1.426-0.923,2.141c-0.195,0.449-1.104-0.281-1.556,0.379
			c-1.341,1.961-1.312,4.039-1.34,6.299c-0.016,1.324,6.437,2.41,7.343,1.986c0.639-0.303,2.11-3.381,1.604-3.897
			c-0.936-0.962-2.708-1.953-1.935-3.476c1.147,1.322,1.207,2.189,2.762,1.248c1.747-1.063,0.51-1.875,1.053-3.309
			c0.471-1.244,3.164-2.467,3.964-3.562c0.954-1.301,2.499-1.133,4.095-1.393c-0.056,0.475,0.268,1.004,0.192,1.478
			c2.354-0.761,10.346,2.098,11.689-0.931c0.626-1.416,1.815-2.326,2.367-3.74c0.717-1.84,3.877-1.993,5.611-2.668
			c0.732-0.284,4.868-0.896,5.091-1.27c0.619-1.031,4.417-0.236,5.705-0.791c1.701-0.73,1.249-1.726,1.27-3.459
			c0.005-0.394,3.427-0.172,4.215-0.39c-0.831-0.487-2.316-0.989-2.927-1.719c-1.499-1.795-0.144-1.479,1.703-1.453
			c-1.276-2.393,2.999-2.682,0.566-5.174c-1.21-1.24-2.786-3.483-4.643-3.506c-2.137-0.025-2.633,1.738-4.702,2.402
			c-0.302,0.096-1.98-0.338-2.084-0.594c-0.59-1.453,2.567-1.755,3.183-2.066c-1.445-0.662-2.62-1.012-4.181-1.322
			c-1.598-0.32-2.392-1.984-3.773-2.354c-1.622-0.431-2.914,1.326-3.95,2.27c-0.416,0.379-1.418,2.572-1.733,2.447
			c-0.857-0.344-1.714-0.688-2.572-1.025c1.175-1.338,3.161-2.41,3.729-4.049c0.736-2.121,0.59-3.924,1.656-5.99
			c1.485,1.904,2.13,3.871,4.794,3.849c-0.244-1.539,6.176-0.769,7.214-0.754c0.949,0.012,0.055-4.328-0.417-4.218
			c-2.813,0.668-3.021-0.592-4.827-2.26c-1.707-1.572-3.426-3.104-5.193-4.6c-1.078-0.912-1.182-1.188-1.73-2.729
			c-0.223-0.631,0.217-2.434,0.013-2.662c-1.404-1.567-2.81-3.024-4.35-4.459c-0.87-0.811-4.191-1.42-5.426-2.008
			C149.053,1470.385,147.854,1473.672,146.798,1474.963"/>
    </g>
</svg>
